<?xml version="1.0" encoding="UTF-8" standalone="no"?>
<!-- Created with Inkscape (http://www.inkscape.org/) -->

<svg
   xmlns:dc="http://purl.org/dc/elements/1.1/"
   xmlns:cc="http://creativecommons.org/ns#"
   xmlns:rdf="http://www.w3.org/1999/02/22-rdf-syntax-ns#"
   xmlns:svg="http://www.w3.org/2000/svg"
   xmlns="http://www.w3.org/2000/svg"
   xmlns:sodipodi="http://sodipodi.sourceforge.net/DTD/sodipodi-0.dtd"
   xmlns:inkscape="http://www.inkscape.org/namespaces/inkscape"
   width="335"
   height="425"
   viewBox="0 0 335 425.00001"
   id="svg2"
   version="1.1"
   inkscape:version="0.91 r13725"
   sodipodi:docname="Park7Games_logo.svg">
  <defs
     id="defs4" />
  <sodipodi:namedview
     id="base"
     pagecolor="#ffffff"
     bordercolor="#666666"
     borderopacity="1.0"
     inkscape:pageopacity="0.0"
     inkscape:pageshadow="2"
     inkscape:zoom="0.49497475"
     inkscape:cx="573.68501"
     inkscape:cy="638.88917"
     inkscape:document-units="px"
     inkscape:current-layer="layer1"
     showgrid="false"
     units="px"
     inkscape:showpageshadow="false"
     inkscape:snap-page="true"
     showguides="false"
     inkscape:window-width="2560"
     inkscape:window-height="1377"
     inkscape:window-x="-8"
     inkscape:window-y="-8"
     inkscape:window-maximized="1">
    <inkscape:grid
       type="xygrid"
       id="grid3724" />
  </sodipodi:namedview>
  <metadata
     id="metadata7">
    <rdf:RDF>
      <cc:Work
         rdf:about="">
        <dc:format>image/svg+xml</dc:format>
        <dc:type
           rdf:resource="http://purl.org/dc/dcmitype/StillImage" />
        <dc:title></dc:title>
      </cc:Work>
    </rdf:RDF>
  </metadata>
  <g
     inkscape:label="Layer 1"
     inkscape:groupmode="layer"
     id="layer1"
     transform="translate(0,-627.36216)">
    <flowRoot
       xml:space="preserve"
       id="flowRoot3742"
       style="font-style:normal;font-weight:normal;font-size:40px;line-height:125%;font-family:sans-serif;letter-spacing:0px;word-spacing:0px;fill:#000000;fill-opacity:1;stroke:none;stroke-width:1px;stroke-linecap:butt;stroke-linejoin:miter;stroke-opacity:1"><flowRegion
         id="flowRegion3744"><rect
           id="rect3746"
           width="200"
           height="90"
           x="140"
           y="680" /></flowRegion><flowPara
         id="flowPara3748" /></flowRoot>    <g
       id="g4382"
       transform="translate(-238.12545,164.17515)">
      <g
         id="g4364">
        <path
           style="opacity:1;fill:#48d1cc;fill-opacity:1;stroke:#000000;stroke-width:1.3277247;stroke-opacity:0"
           d="m 309.82059,465.79966 c -38.76335,0 -69.9707,31.20539 -69.9707,69.96875 l 0,233.1875 c 0,38.76336 31.20735,69.96875 69.9707,69.96875 l 11.97071,0 c -33.0981,-3.38115 -58.75391,-31.18706 -58.75391,-65.20703 l 0,-218.46875 c 0,-36.31674 29.23795,-65.55274 65.55469,-65.55274 l 169.32617,0 c 36.31674,0 65.55273,29.236 65.55273,65.55274 l 0,218.46875 c 0,4.40591 -0.43674,8.70534 -1.25781,12.86328 1.45019,-5.62773 2.22266,-11.53202 2.22266,-17.625 l 0,-233.1875 c 0,-38.76336 -31.20735,-69.96875 -69.9707,-69.96875 l -184.64454,0 z"
           id="rect4357"
           inkscape:connector-curvature="0" />
        <g
           id="g4349"
           transform="matrix(1.2321724,0,0,1.2608744,-65.584335,-133.33942)">
          <rect
             style="opacity:1;fill:#48d1cc;fill-opacity:1;stroke:#000000;stroke-width:0.9573555;stroke-opacity:0"
             id="rect4180"
             width="234.04265"
             height="269.04263"
             x="282.97867"
             y="511.58496"
             ry="50.451817" />
          <path
             inkscape:connector-curvature="0"
             id="rect3354"
             d="m 357.59376,530.59459 c -7.48818,0 -13.51563,6.02744 -13.51563,13.51563 0,7.48818 6.02745,13.51757 13.51563,13.51757 l 27.40234,0 0,60.22852 c 0,7.41952 5.96066,13.39258 13.36524,13.39258 l 3.27734,0 c 7.40459,0 13.36524,-5.97306 13.36524,-13.39258 l 0,-73.44531 c 0,-4.35925 -2.06654,-8.20611 -5.26563,-10.64844 -2.34925,-1.97671 -5.38249,-3.16797 -8.70703,-3.16797 l -43.4375,0 z m 9.75,40.51563 c -23.46986,0 -42.36328,18.93402 -42.36328,42.45117 l 0,35.37304 c 0,0.86738 0.0333,1.7259 0.084,2.58008 -0.0498,0.39466 -0.084,0.7945 -0.084,1.20313 l 0,131.45898 c 0,5.2308 4.20162,9.44141 9.42187,9.44141 l 6.16211,0 c 5.22025,0 9.42188,-4.21061 9.42188,-9.44141 l 0,-96.49414 c 5.29402,2.3742 11.16263,3.70313 17.35742,3.70313 l 65.3125,0 c 23.46985,0 42.36328,-18.93402 42.36328,-42.45118 l 0,-35.37304 c 0,-23.51715 -18.89343,-42.45117 -42.36328,-42.45117 l -7.65039,0 0,20.23437 c 14.11058,1.59965 25.00781,13.53065 25.00781,28.11133 l 0,23.58398 c 0,15.67811 -12.59558,28.30078 -28.24219,28.30078 l -43.54296,0 c -15.64658,0 -28.24219,-12.62264 -28.24219,-28.30078 l 0,-23.58398 c 0,-14.58068 10.89724,-26.51168 25.00781,-28.11133 l 0,-20.23437 -7.65039,0 z"
             style="fill:#800080;fill-opacity:1" />
          <flowRoot
             transform="translate(1079.0168,460.10015)"
             style="font-style:italic;font-variant:normal;font-weight:normal;font-stretch:semi-expanded;font-size:80px;line-height:125%;font-family:'Harlow Solid Italic';-inkscape-font-specification:'Harlow Solid Italic, Italic Semi-Expanded';letter-spacing:4.69999933px;word-spacing:0px;fill:#800080;fill-opacity:1;stroke:none;stroke-width:1px;stroke-linecap:butt;stroke-linejoin:miter;stroke-opacity:1"
             id="flowRoot4222"
             xml:space="preserve"><flowRegion
               id="flowRegion4224"><rect
                 style="font-style:italic;font-variant:normal;font-weight:normal;font-stretch:semi-expanded;font-size:80px;font-family:'Harlow Solid Italic';-inkscape-font-specification:'Harlow Solid Italic, Italic Semi-Expanded';letter-spacing:4.69999933px;fill:#800080;fill-opacity:1"
                 y="219.16228"
                 x="-709.12708"
                 height="145.46196"
                 width="290.92392"
                 id="rect4226" /></flowRegion><flowPara
               id="flowPara4228">ark</flowPara></flowRoot>        </g>
      </g>
      <flowRoot
         transform="translate(1464.7212,569.55006)"
         style="font-style:normal;font-weight:normal;font-size:40px;line-height:125%;font-family:sans-serif;letter-spacing:0px;word-spacing:0px;fill:#000000;fill-opacity:1;stroke:none;stroke-width:1px;stroke-linecap:butt;stroke-linejoin:miter;stroke-opacity:1"
         id="flowRoot4374"
         xml:space="preserve"><flowRegion
           id="flowRegion4376"><rect
             y="274.72067"
             x="-1092.9851"
             height="64.649773"
             width="147.48225"
             id="rect4378" /></flowRegion><flowPara
           id="flowPara4380">Games</flowPara></flowRoot>    </g>
  </g>
</svg>
